<svg id="Calque_1" data-name="Calque 1" xmlns="http://www.w3.org/2000/svg" viewBox="0 0 1008.78 633.33"><defs><style>.cls-1{fill:#177bda;stroke:#fff;stroke-miterlimit:10;stroke-width:24px;}</style></defs><path class="cls-1" d="M601.59,197.93c-63.26,7.67-134.38,31.06-193,63.26-23.77,13-67.1,42.37-90.1,61C247.13,379.66,175.63,466.5,117.54,565.8c-37.38,63.84-76.68,149-100.07,217L10,804.66l417.33-.19c368.83-.19,415-.58,397.4-2.88-124.8-16.87-209.53-86.84-236.18-194.38-6.33-25.88-6.52-73.42-.19-98.34,17.25-69.2,63.65-116,132.27-133,18.41-4.6,63.84-4.6,80.9.19,38.91,10.74,73,36,100.26,74.38,18.6,26.07,37.19,69.2,46.39,107l3.64,14.38,9-19a336.64,336.64,0,0,0,25.11-73.61c3.26-15,4.22-24.92,4-50.23,0-28-.57-33.74-5-50.42-20.13-75.15-80.32-128.44-183.46-162-34.31-11.31-51.95-15.34-79.94-18.6C691.88,194.48,630.73,194.48,601.59,197.93Z" transform="translate(6.78 -183.34)"/><path class="cls-1" d="M745,401.32c-3.07.57-12.08,2.3-19.94,3.83l-14.19,3.07,15.34,7.28c17.44,8.24,29.71,18.21,35.66,29.52,3.83,7.29,4.22,10.54,4.22,41.41,0,39.11,2.11,47.93,14.95,62.49,16.49,18.6,35.85,21.09,57.51,6.9a69.41,69.41,0,0,0,12.66-12.27l5.56-7.48,1.34,10.16c3.26,23.58,13.8,40.26,30.67,48.69,9,4.22,12.46,5,23,4.22,6.71-.38,12.65-1.15,13.23-1.72,1.72-1.53-7.86-42.94-14.76-63.45-23.2-69.2-64.6-116.17-113.87-128.82C784.28,401.9,755.14,399.79,745,401.32Z" transform="translate(6.78 -183.34)"/></svg>